<?xml version="1.0" encoding="UTF-8"?>
<!DOCTYPE svg PUBLIC "-//W3C//DTD SVG 1.1//EN" "http://www.w3.org/Graphics/SVG/1.1/DTD/svg11.dtd">
<!-- Creator: CorelDRAW X7 -->
<svg xmlns="http://www.w3.org/2000/svg" xml:space="preserve" width="45.2023mm" height="6.9088mm" version="1.1" style="shape-rendering:geometricPrecision; text-rendering:geometricPrecision; image-rendering:optimizeQuality; fill-rule:evenodd; clip-rule:evenodd"
viewBox="0 0 1293 198"
 xmlns:xlink="http://www.w3.org/1999/xlink">
 <defs>
  <style type="text/css">
   <![CDATA[
    .fil0 {fill:#2B2A29;fill-rule:nonzero}
   ]]>
  </style>
 </defs>
 <g id="Layer_x0020_1">
  <metadata id="CorelCorpID_0Corel-Layer"/>
  <path class="fil0" d="M0 180l0 -173 87 0 0 16 -70 0 0 56 9 0c21,0 37,2 47,6 9,4 17,10 23,18 5,8 8,17 8,28 0,13 -5,24 -15,34 -10,10 -24,15 -41,15l-48 0zm17 -83l0 66 22 0c12,0 22,-1 27,-3 6,-3 11,-7 14,-12 4,-5 6,-11 6,-17 0,-8 -3,-15 -8,-21 -5,-5 -11,-9 -18,-11 -7,-1 -18,-2 -33,-2l-10 0zm228 41l14 7c-5,9 -10,16 -16,22 -6,5 -13,9 -21,12 -7,3 -16,5 -25,5 -21,0 -38,-7 -49,-21 -12,-14 -18,-29 -18,-47 0,-16 5,-30 15,-43 13,-16 30,-24 51,-24 22,0 40,8 53,25 9,11 14,26 14,43l-116 0c0,15 5,28 14,37 9,10 21,14 34,14 7,0 13,-1 20,-3 6,-2 11,-5 15,-9 5,-4 10,-10 15,-18zm0 -35c-2,-9 -6,-16 -10,-21 -4,-5 -10,-10 -17,-13 -7,-3 -14,-5 -22,-5 -12,0 -23,4 -33,13 -6,5 -11,14 -15,26l97 0zm157 77l-17 0 -43 -93 -43 93 -18 0 59 -128 3 0 59 128zm42 -77l16 0c12,0 22,1 29,3 7,2 13,6 19,13 5,6 7,14 7,23 0,11 -3,20 -11,27 -7,8 -19,11 -34,11l-42 0 0 -128 16 0 0 51zm1 15l0 48 19 0c22,0 33,-8 33,-23 0,-5 -1,-9 -3,-13 -3,-5 -6,-8 -11,-9 -4,-2 -13,-3 -24,-3l-14 0zm93 -66l17 0 0 128 -17 0 0 -128zm68 0l0 95 95 -95 1 0 0 128 -16 0 0 -94 -94 94 -2 0 0 -128 16 0zm-2 -52l16 0c3,4 6,7 11,9 4,2 10,3 16,3 6,0 11,-1 15,-2 4,-2 8,-5 11,-10l15 0c-2,7 -6,13 -13,18 -7,5 -17,7 -28,7 -12,0 -21,-2 -29,-7 -7,-5 -12,-11 -14,-18zm367 39l-14 10c-7,-10 -16,-17 -27,-22 -11,-5 -22,-8 -35,-8 -14,0 -27,3 -38,10 -12,7 -21,16 -28,27 -6,11 -10,24 -10,38 0,21 8,39 22,53 15,14 33,21 55,21 24,0 45,-9 61,-28l14 10c-9,11 -20,20 -33,26 -12,6 -27,9 -43,9 -30,0 -54,-10 -72,-31 -15,-17 -22,-37 -22,-62 0,-25 9,-46 27,-64 18,-17 40,-26 67,-26 16,0 31,3 44,10 13,6 24,15 32,27zm160 13l0 128 -16 0 0 -22c-7,9 -15,15 -24,19 -8,4 -18,7 -28,7 -18,0 -34,-7 -46,-20 -13,-13 -20,-29 -20,-48 0,-19 7,-35 20,-48 13,-13 28,-19 47,-19 10,0 20,2 28,6 9,5 16,11 23,20l0 -23 16 0zm-66 13c-9,0 -18,2 -26,6 -7,5 -13,11 -18,19 -5,9 -7,17 -7,26 0,9 2,18 7,26 5,8 11,15 19,19 7,5 16,7 25,7 9,0 17,-2 25,-7 9,-4 15,-10 19,-18 5,-8 7,-17 7,-26 0,-15 -5,-27 -15,-37 -10,-10 -22,-15 -36,-15zm105 101l49 -114 9 0 49 114 16 0 0 31 -16 0 0 -17 -107 0 0 18 -16 0 0 -32 16 0zm53 -88l-37 88 73 0 -36 -88z"/>
 </g>
</svg>
